<?xml version="1.0" encoding="utf-8"?>
<!-- Generator: Adobe Illustrator 20.1.0, SVG Export Plug-In . SVG Version: 6.00 Build 0)  -->
<svg version="1.1" id="Capa_1" xmlns="http://www.w3.org/2000/svg" xmlns:xlink="http://www.w3.org/1999/xlink" x="0px" y="0px"
	 viewBox="0 0 189 28" style="enable-background:new 0 0 189 28;" xml:space="preserve">
<path class="st0" fill="#FF7300" d="M158,16.7c6.7-0.3,7.7-0.8,7.7-2.4c0-1.8-1.2-2.7-5-2.7c-4.9,0-5.5,0.9-5.5,5.2L158,16.7z M183.9,22.7h5.1v4.9
	h-5.1V22.7z M11,27.9c7.2,0,10.8-2.2,10.8-9.9c0-7-2.7-10.1-9.8-10.1c-3.1,0-5.3,0.3-6.9,1.6V0H0v18.5C0,25.5,3.1,27.9,11,27.9
	C11,27.9,3.1,27.9,11,27.9z M40.2,15.3v-0.9c0-2.2-1.5-2.7-5.4-2.7c-3.7,0-6.9,0.8-8.6,1.3V9.4c2.9-1.1,6.3-1.6,8.8-1.6
	c5.6,0,10.3,0.9,10.3,7.1v5.9c0,6.9-5.7,7-10.3,7c-7,0-10.3-1.9-10.3-5.9C24.7,16.7,28.1,15.7,40.2,15.3
	C40.2,15.3,28.1,15.7,40.2,15.3z M80,19.8v7.8h-5V0h5.1v15.4h1c1.5,0,2-0.3,3.1-1.3l6-5.8h5.9L87,17.5l9.7,10.2h-6.5L83.9,21
	c-1-1.1-1.5-1.2-3-1.2H80z M54.5,27.6V15.5c0-2.9,1-3.8,5.4-3.8s5.4,0.8,5.4,3.8v12.2h5.1V15.3c0-5.5-4-7.3-9.6-7.3h-1.7
	c-5.6,0-9.6,1.8-9.6,7.3v12.3H54.5z M113.3,27.6V15.5c0-2.9,1-3.8,5.3-3.8c4.5,0,5.4,0.8,5.4,3.8v12.2h5.1V15.3c0-5.5-4-7.3-9.6-7.3
	h-1.7c-5.6,0-9.6,1.8-9.6,7.3v12.3H113.3z M147,12.2h-8.5v9.4c0,1.8,1.3,2.5,3.4,2.5c2.4,0,4-0.2,5.2-0.5V27c-2,0.6-4.1,0.9-5.8,0.9
	c-5.6,0-7.8-2.3-7.8-5.9V2.2h5v6.2h8.5L147,12.2L147,12.2z M10.9,24.1c-5.2,0-6-0.9-6-6.7c0-5,1.6-5.7,5.8-5.7s5.9,0.7,5.9,5.7
	C16.5,23.3,15.6,24.1,10.9,24.1z M175,14.5c0-5.2,3.8-6.7,7.3-6.7c1.6,0,5.9,0.2,6.7,0.4v3.7h-5.5c-2.8,0-3.5,0.3-3.5,3v12.8h-5
	V14.5z M98.5,8.3h5.2v19.3h-5.2V8.3z M35.4,24.1c3.8,0,4.9-0.5,4.9-2.4v-3l-4.6,0.2c-4.6,0.3-5.7,0.9-5.7,2.5
	C29.9,23.7,30.6,24.1,35.4,24.1C35.4,24.1,30.6,24.1,35.4,24.1z M98.5,0h5.2v4.9h-5.2V0z M155.3,20.5c0.3,2.4,1.5,3.8,5.4,3.8
	c3.4,0,6.9-0.5,9.6-1.5v3.4c-2,1.1-6.3,1.8-9.4,1.8c-8.3,0-11-2.1-11-10.3c0-7.2,2.4-9.9,10.9-9.9c7.1,0,10.2,2.4,10.3,6.4
	C171.1,19.1,167.7,20.3,155.3,20.5C155.3,20.5,167.7,20.3,155.3,20.5z"/>
</svg>
